<mxfile host="app.diagrams.net" modified="2021-10-31T09:05:32.582Z" agent="5.0 (Windows NT 10.0; Win64; x64) AppleWebKit/537.36 (KHTML, like Gecko) Chrome/93.0.4577.82 Safari/537.36" etag="KiWkMjop8mtK-Gt_PhwW" version="15.6.2" type="github">
  <diagram id="XTG9yIexvmwjZyMoxiNq" name="Page-1">
    <mxGraphModel dx="1038" dy="547" grid="1" gridSize="10" guides="1" tooltips="1" connect="1" arrows="1" fold="1" page="1" pageScale="1" pageWidth="827" pageHeight="1169" math="0" shadow="0">
      <root>
        <mxCell id="0" />
        <mxCell id="1" parent="0" />
        <mxCell id="Gp7iOYqOzbDYn91BeAae-3" style="edgeStyle=orthogonalEdgeStyle;rounded=0;orthogonalLoop=1;jettySize=auto;html=1;exitX=0.5;exitY=1;exitDx=0;exitDy=0;entryX=0.5;entryY=0;entryDx=0;entryDy=0;" edge="1" parent="1" source="Gp7iOYqOzbDYn91BeAae-1" target="Gp7iOYqOzbDYn91BeAae-2">
          <mxGeometry relative="1" as="geometry" />
        </mxCell>
        <mxCell id="Gp7iOYqOzbDYn91BeAae-6" style="edgeStyle=orthogonalEdgeStyle;rounded=0;orthogonalLoop=1;jettySize=auto;html=1;exitX=1;exitY=0.5;exitDx=0;exitDy=0;entryX=0.5;entryY=0;entryDx=0;entryDy=0;" edge="1" parent="1" source="Gp7iOYqOzbDYn91BeAae-1" target="Gp7iOYqOzbDYn91BeAae-4">
          <mxGeometry relative="1" as="geometry" />
        </mxCell>
        <mxCell id="Gp7iOYqOzbDYn91BeAae-1" value="" style="ellipse;whiteSpace=wrap;html=1;" vertex="1" parent="1">
          <mxGeometry x="150" y="210" width="120" height="80" as="geometry" />
        </mxCell>
        <mxCell id="Gp7iOYqOzbDYn91BeAae-5" style="edgeStyle=orthogonalEdgeStyle;rounded=0;orthogonalLoop=1;jettySize=auto;html=1;exitX=1;exitY=0.5;exitDx=0;exitDy=0;entryX=0;entryY=0.5;entryDx=0;entryDy=0;" edge="1" parent="1" source="Gp7iOYqOzbDYn91BeAae-2" target="Gp7iOYqOzbDYn91BeAae-4">
          <mxGeometry relative="1" as="geometry" />
        </mxCell>
        <mxCell id="Gp7iOYqOzbDYn91BeAae-2" value="" style="ellipse;whiteSpace=wrap;html=1;" vertex="1" parent="1">
          <mxGeometry x="150" y="370" width="120" height="80" as="geometry" />
        </mxCell>
        <mxCell id="Gp7iOYqOzbDYn91BeAae-4" value="" style="rounded=0;whiteSpace=wrap;html=1;" vertex="1" parent="1">
          <mxGeometry x="450" y="380" width="120" height="60" as="geometry" />
        </mxCell>
      </root>
    </mxGraphModel>
  </diagram>
</mxfile>
